<?xml version="1.0" standalone="no"?>
<!DOCTYPE svg PUBLIC "-//W3C//DTD SVG 1.1//EN" "http://www.w3.org/Graphics/SVG/1.1/DTD/svg11.dtd">
<svg xmlns="http://www.w3.org/2000/svg">
<metadata>Copyright (C) 2020 by original authors @ fontello.com</metadata>
<defs>
<font id="fontello" horiz-adv-x="1000" >
<font-face font-family="fontello" font-weight="400" font-stretch="normal" units-per-em="1000" ascent="850" descent="-150" />
<missing-glyph horiz-adv-x="1000" />
<glyph glyph-name="002-facebook-placeholder-for-locate-places-on-maps" unicode="&#xe800;" d="M828 601c-3 14-11 28-16 40-64 154-204 209-317 209-151 0-317-101-339-310v-43c0-2 0-18 1-26 13-99 91-205 150-305 63-106 128-211 193-316 40 68 80 138 119 204 11 20 23 40 34 58 7 13 21 25 27 37 63 115 164 232 164 346v47c0 13-15 56-16 59z m-330-214c-44 0-93 22-117 83-3 10-3 30-3 32v27c0 78 66 114 124 114 71 0 126-57 126-128 0-71-59-128-130-128z" horiz-adv-x="1000" />

<glyph glyph-name="002-vk-social-logotype" unicode="&#xe801;" d="M500 850c-276 0-500-224-500-500s224-500 500-500 500 224 500 500-224 500-500 500z m254-554c23-23 48-44 69-69 9-11 18-23 24-36 10-18 1-38-15-40l-103 0c-26-2-47 9-65 27-14 14-27 30-41 45-6 6-11 12-18 16-14 9-27 6-35-8-8-15-10-31-10-48-1-24-9-30-33-32-52-2-101 6-147 32-40 23-71 56-98 92-53 72-94 151-130 232-8 18-2 28 18 28 33 1 67 1 100 0 14 0 23-8 28-21 18-44 40-86 68-126 7-10 15-20 26-28 12-8 21-5 26 8 4 8 5 17 6 26 3 31 3 62-2 93-2 19-13 32-32 35-10 2-9 6-4 11 8 10 16 16 31 16l116 0c18-4 22-12 25-30l0-129c0-7 4-28 16-33 11-3 17 5 23 12 28 29 48 64 66 100 8 16 14 32 21 49 5 12 12 18 26 18l111-1c4 0 7 0 10 0 19-3 24-11 18-30-9-29-26-53-44-77-18-25-38-50-57-76-17-24-15-36 6-56z" horiz-adv-x="1000" />

<glyph glyph-name="003-facebook-logo-button" unicode="&#xe802;" d="M500 850c-276 0-500-224-500-500 0-276 224-500 500-500 276 0 500 224 500 500 0 276-224 500-500 500z m124-518h-81c0-130 0-289 0-289h-120c0 0 0 158 0 289h-58v103h58v66c0 48 22 122 121 122l89 0v-100c0 0-54 0-64 0-11 0-26-5-26-28v-60h92l-11-103z" horiz-adv-x="1000" />

<glyph glyph-name="bitcoin" unicode="&#xe803;" d="M328 288h81 122v-125h-122-81-122-81v125h81 122z m-250 375h594v-125h-594v125z m78 0h78v-125h-78v125z m94-125h81 122v-125h-122-81-122-81v125h81 122z m47 0h94v-125h-94v125z m78-250h94v-125h-94v125z m-250 250h78v-125h-78v125z m78-250h78v-125h-78v125z m-125 125h594v-125h-594v125z m250 0h94v-125h-94v125z m0 250h94v-125h-94v125z m-172-250h78v-125h-78v125z m360 250h78v-125h-78v125z m-469-500h594v-125h-594v125z m78 0h78v-125h-78v125z m172 0h94v-125h-94v125z m187 0h79v-125h-79v125z m-31 125h31v-125h-31v125z m47 125h31v-79h-31v79z m-94 0h32v-125h-32v125z m47-110c0 130 105 235 235 235 54 0 107-19 149-54-82 100-230 114-330 31s-114-230-31-330c9-11 20-21 31-31-35 42-54 95-54 149l0 0z m297 31c34 26 42 75 16 109-15 20-38 32-63 32v31h-31v-31h-47v31h-31v-31h-47v-31h31v-219h-31v-31h47v-31h31v31h47v-31h31v31c43 0 78 34 78 78 0 24-11 48-31 62z m-133 110h86c26 0 47-21 47-47s-21-47-47-47h-94v94h8z m86-219h-94v94h94c26 0 47-21 47-47s-21-47-47-47z" horiz-adv-x="1000" />

<glyph glyph-name="card" unicode="&#xe804;" d="M945-12h-890c-31 0-55 24-55 55v614c0 31 24 55 55 55h890c31 0 55-24 55-55v-614c0-31-24-55-55-55m-686 379h-156c-10 0-17 7-17 18s7 17 17 17h156c10 0 17-7 17-17s-7-18-17-18m224 0h-155c-11 0-18 7-18 18s7 17 18 17h155c10 0 17-7 17-17s-7-18-17-18m-362-86h-18c-10 0-17 7-17 17s7 18 17 18h18c10 0 17-7 17-18 0-10-7-17-17-17m103 0h-34c-11 0-18 7-18 17s7 18 18 18h34c11 0 17-7 17-18 0-10-6-17-17-17m86 0h-17c-10 0-17 7-17 17s7 18 17 18h17c11 0 18-7 18-18 0-10-7-17-18-17m104 0h-35c-10 0-17 7-17 17s7 18 17 18h35c10 0 17-7 17-18 0-10-7-17-17-17m69 0c-5 0-9 2-12 5-4 4-5 7-5 12 0 5 1 9 5 12 7 7 17 7 24 0 3-3 5-7 5-12 0-5-2-8-5-12-4-3-7-5-12-5m310-103c0-57-46-104-103-104s-104 47-104 104 47 103 104 103 103-46 103-103m121 0c0-57-47-104-104-104s-103 47-103 104 46 103 103 103 104-46 104-103" horiz-adv-x="1000" />

<glyph glyph-name="checked" unicode="&#xe805;" d="M500 850c-276 0-500-224-500-500s224-500 500-500 500 225 500 500-224 500-500 500z m287-415l-314-314c-13-14-31-21-50-21s-36 7-50 21l-160 160c-14 13-21 31-21 50 0 19 7 37 21 50 13 14 31 21 50 21 19 0 36-7 50-21l110-110 264 264c14 14 31 21 50 21 19 0 37-7 50-21 27-28 27-73 0-100z" horiz-adv-x="1000" />

<glyph glyph-name="close" unicode="&#xe806;" d="M988 838c-16 16-41 16-57 0l-919-919c-16-16-16-41 0-57 8-8 18-12 28-12 11 0 21 4 29 12l919 919c16 16 16 41 0 57z m0-919l-919 919c-16 16-41 16-57 0-16-16-16-41 0-57l919-919c8-8 18-12 29-12 10 0 20 4 28 12 16 16 16 41 0 57z" horiz-adv-x="1000" />

<glyph glyph-name="house" unicode="&#xe807;" d="M974 437c3-2 6-3 10-3 2 0 5 0 7 1 6 3 9 9 9 15v86c0 5-2 10-6 13l-264 208c-18 14-44 14-63 0l-99-79v31c0 9-7 16-16 16h-69c-9 0-16-7-16-16v-111l-63-49c-4-3-7-8-7-13v-86c0-6 4-12 10-15 5-3 12-2 17 2l8 7v-158l-151 119c-19 14-44 14-63 0l-212-167c-4-3-6-8-6-13v-86c0-6 4-12 9-15 2-1 5-1 7-1 4 0 7 1 10 3l9 7v-168h-19c-9 0-16-7-16-16s7-17 16-17h968c9 0 16 8 16 17s-7 16-16 16h-19v479l9-7z m-475 256h37v-40l-37-29v69z m-69-165l257 203c7 5 16 5 23 0l258-203v-45l-259 204c-3 2-7 4-10 4s-7-2-10-4l-259-204v45z m-398-311l206 162c7 6 16 6 23 0l171-134v-46l-172 136c-6 5-15 5-21 0l-207-163v45z m35-59l183 144 182-144v-193h-71v191c0 9-8 16-16 16h-191c-8 0-16-7-16-16v-191h-71v193z m104-87h157v-37h-157v37z m157 32h-157v37h157v-37z m-157-101h157v-37h-157v37z m468 84c0 0 0 0-1 0-4 0-8-2-11-5-3-3-5-7-5-11 0-5 2-9 5-12 3-3 7-5 11-5 1 0 1 0 1 1v-89h-71v209h71v-88z m294-121h-261v226c0 9-7 16-16 16h-104c-9 0-16-7-16-16v-226h-72v504l235 185 234-185v-504z m-191 71h104c9 0 16 7 16 16v139c0 9-7 16-16 16h-104c-9 0-16-7-16-16v-139c0-9 7-16 16-16z m16 33v54h71v-54h-71z m71 105v-19h-71v19h71z m-87 104h104c9 0 16 7 16 16v139c0 8-7 16-16 16h-104c-9 0-16-8-16-16v-139c0-9 7-16 16-16z m16 32v54h71v-54h-71z m71 106v-19h-71v19h71z m-173 33h-104c-9 0-16-8-16-16v-139c0-9 7-16 16-16h104c9 0 16 7 16 16v139c0 8-7 16-16 16z m-17-33v-19h-71v19h71z m-71-106v54h71v-54h-71z" horiz-adv-x="1000" />

<glyph glyph-name="insta" unicode="&#xe808;" d="M596 350c0-53-43-96-96-96s-96 43-96 96 43 96 96 96 96-43 96-96z m128 169c-5 13-12 24-22 33-9 10-20 17-33 22-10 4-25 8-53 10-30 1-39 2-116 2-77 0-86-1-116-2-28-2-43-6-53-10-13-5-24-12-33-22-10-9-17-20-22-33-4-10-8-25-10-53-1-30-1-39-1-116 0-77 0-86 1-116 2-28 6-43 10-53 5-13 12-24 22-33 9-10 20-17 33-22 10-4 25-8 53-10 30-1 39-1 116-1 77 0 86 0 116 1 28 2 43 6 53 10 25 10 45 30 55 55 4 10 8 25 10 53 1 30 2 39 2 116 0 77-1 86-2 116-2 28-6 43-10 53z m-224-316c-81 0-147 66-147 147s66 148 147 148c81 0 148-67 148-148s-67-147-148-147z m153 266c-19 0-34 15-34 34s15 35 34 35 35-16 35-35c0-19-16-34-35-34z m-153 381c-276 0-500-224-500-500s224-500 500-500 500 224 500 500-224 500-500 500z m285-618c-1-31-6-52-13-70-15-39-45-69-84-84-18-7-39-12-70-13-30-2-40-2-118-2-78 0-88 0-118 2-31 1-52 6-70 13-19 7-37 19-51 33-14 14-26 32-33 51-7 18-12 39-13 70-2 30-2 40-2 118s0 88 2 118c1 31 6 52 13 70 7 19 19 37 33 51 14 15 32 26 51 33 18 7 39 12 70 13 30 2 40 2 118 2s88 0 118-2c31-1 52-6 70-13 19-7 37-18 51-33 15-14 26-32 33-51 7-18 12-39 13-70 2-30 2-40 2-118s0-88-2-118z" horiz-adv-x="1000" />

<glyph glyph-name="log-out" unicode="&#xe809;" d="M483-93h-261c-71 0-128 58-128 129v628c0 71 58 129 128 129h265c16 0 29 12 29 28s-13 29-29 29h-265c-102 0-185-83-185-186v-628c0-103 83-186 185-186h261c16 0 29 13 29 29s-13 28-29 28z m472 463l-182 182c-11 12-29 12-41 0-11-11-11-29 0-40l134-134h-582c-15 0-28-12-28-28s13-29 28-29h582l-134-133c-11-11-11-29 0-41 6-5 13-8 21-8s14 3 20 8l182 182c11 12 11 30 0 41z" horiz-adv-x="1000" />

<glyph glyph-name="men" unicode="&#xe80a;" d="M800 135l-160 80c-15 8-25 23-25 40v57c3 5 8 10 12 16 20 30 36 62 50 97 23 10 38 33 38 60v67c0 16-7 31-17 43v88c2 10 5 64-35 109-31 38-88 58-163 58s-132-20-165-58c-40-45-35-100-35-109v-88c-10-12-17-28-17-43v-67c0-20 10-40 25-52 15-60 47-106 59-120v-55c0-16-9-31-24-38l-148-82c-48-28-78-80-78-135v-53c0-78 250-100 383-100s383 22 383 100v50c0 58-31 110-83 135z" horiz-adv-x="1000" />

<glyph glyph-name="money" unicode="&#xe80b;" d="M92 643c8 4 12 14 8 22-4 8-14 12-22 8-12-5-22-12-32-20-7-6-8-17-2-24 4-4 8-6 13-6 4 0 8 2 11 5 7 6 15 11 24 15z m58 9h33c10 0 17 7 17 17s-7 16-17 16h-33c-9 0-17-7-17-16s8-17 17-17z m100 0h33c10 0 17 7 17 17s-7 16-17 16h-33c-9 0-17-7-17-16s8-17 17-17z m-67-200h-33c-9 0-17-7-17-17s8-16 17-16h33c10 0 17 7 17 16s-7 17-17 17z m200 0h-33c-9 0-17-7-17-17s8-16 17-16h33c10 0 17 7 17 16s-7 17-17 17z m-100 0h-33c-9 0-17-7-17-17s8-16 17-16h33c10 0 17 7 17 16s-7 17-17 17z m-191 9c-9 4-17 9-24 15-7 6-18 6-24-1-6-7-5-18 2-24 10-8 20-15 32-20 2-1 5-2 7-2 6 0 12 4 15 10 4 8 0 18-8 22z m391-9h-33c-9 0-17-7-17-17s8-16 17-16h33c10 0 17 7 17 16s-7 17-17 17z m300 0h-33c-9 0-17-7-17-17s8-16 17-16h33c10 0 17 7 17 16s-7 17-17 17z m100 0h-33c-9 0-17-7-17-17s8-16 17-16h33c10 0 17 7 17 16s-7 17-17 17z m-300 0h-33c-9 0-17-7-17-17s8-16 17-16h33c10 0 17 7 17 16s-7 17-17 17z m100 0h-33c-9 0-17-7-17-17s8-16 17-16h33c10 0 17 7 17 16s-7 17-17 17z m-591-491c-9 4-17 9-24 15-7 6-18 6-24-1-6-7-5-18 2-24 10-8 20-15 32-20 2-1 5-2 7-2 6 0 12 4 15 10 4 8 0 18-8 22z m191-9h-33c-9 0-17-8-17-17s8-16 17-16h33c10 0 17 7 17 16s-7 17-17 17z m-100 0h-33c-9 0-17-8-17-17s8-16 17-16h33c10 0 17 7 17 16s-7 17-17 17z m400 0h-33c-9 0-17-8-17-17s8-16 17-16h33c10 0 17 7 17 16s-7 17-17 17z m50-17c0-9 8-16 17-16h33c10 0 17 7 17 16s-7 17-17 17h-33c-9 0-17-8-17-17z m117-16h33c10 0 17 7 17 16s-7 17-17 17h-33c-9 0-17-8-17-17s8-16 17-16z m-267 33h-33c-9 0-17-8-17-17s8-16 17-16h33c10 0 17 7 17 16s-7 17-17 17z m367-33h33c10 0 17 7 17 16s-7 17-17 17h-33c-9 0-17-8-17-17s8-16 17-16z m-467 33h-33c-9 0-17-8-17-17s8-16 17-16h33c10 0 17 7 17 16s-7 17-17 17z m350 250c0-37 30-67 67-67s67 30 67 67-30 67-67 67-67-30-67-67z m67 33c18 0 33-15 33-33s-15-33-33-33-33 15-33 33 15 33 33 33z m-84 517l-91 91c-7 7-19 7-27 0l-34-35-34 35c-7 7-19 7-27 0l-90-91h-280c-73 0-133-60-133-133v-648c0-66 54-119 119-119h881v233 234 166 34 233h-284z m-104 57l57-57 233-233h-90l-188 187c-7 7-18 7-25 0l-188-187h-89l266 266 0 0 24 24z m153-290h-306l153 153 153-153z m-248 290l24-24-267-266h-47l233 233 57 57z m-384-90h246l-34-35c-5-1-9-5-11-10l-155-155h-46c-55 0-100 44-100 100s45 100 100 100z m834-600h-184c-46 0-83 37-83 83s37 83 83 83h184v-166z m0 333h-17c-9 0-17-7-17-17s8-16 17-16h17v-100h-184c-64 0-116-53-116-117s52-117 116-117h184v-133h-17c-9 0-17-8-17-17s8-16 17-16h17v-34h-848c-47 0-86 39-86 86v37c4 4 6 10 4 16-2 9-4 18-4 28v456c4 4 6 10 4 16 0 1 0 2 0 3 1-1 3-3 4-5 2-1 3-2 5-4 2-1 3-3 5-4 2-2 4-3 5-4 2-1 4-3 6-4 2-1 4-2 5-3 3-1 5-3 7-4 2-1 4-1 6-2 2-1 4-2 7-3 2-1 3-2 5-2 3-1 5-2 8-2 2-1 4-1 5-2 3 0 7-1 10-1 1 0 3-1 4-1 5 0 10-1 14-1h64 47 48 47 83 380 82 47 36v-33z m-18 67l-133 133h1c9 0 16 7 16 17s-7 16-16 16h-34c0 0 0 0 0 0l-34 34h218v-200h-18z m-32 166h-34c-9 0-16-7-16-16s7-17 16-17h34c9 0 16 7 16 17s-7 16-16 16z" horiz-adv-x="1000" />

<glyph glyph-name="next" unicode="&#xe80c;" d="M756 370l-472 472c-11 11-29 11-40 0s-11-29 0-40l452-452-452-452c-11-11-11-29 0-40 6-5 13-8 20-8 7 0 15 3 20 8l472 472c11 11 11 29 0 40z" horiz-adv-x="1000" />

<glyph glyph-name="photo-camera" unicode="&#xe80d;" d="M500 450c-83 0-150-67-150-150 0-83 67-150 150-150 83 0 150 67 150 150 0 83-67 150-150 150z m400 150h-120c-16 0-34 13-39 29l-31 93c-6 15-23 28-40 28h-340c-16 0-34-13-39-28l-31-94c-6-15-23-28-40-28h-120c-55 0-100-45-100-100v-450c0-55 45-100 100-100h800c55 0 100 45 100 100v450c0 55-45 100-100 100z m-400-550c-138 0-250 112-250 250 0 138 112 250 250 250 138 0 250-112 250-250 0-138-112-250-250-250z m365 380c-19 0-35 16-35 35 0 19 16 35 35 35 19 0 35-16 35-35 0-19-16-35-35-35z" horiz-adv-x="1000" />

<glyph glyph-name="pin2" unicode="&#xe80e;" d="M888 462c0-311-351-599-351-599-20-17-54-17-74 0 0 0-352 288-352 599 1 214 175 388 389 388s388-174 388-388z m-388-196c-108 0-195 88-195 196s87 195 195 195 195-88 195-195-87-196-195-196z" horiz-adv-x="1000" />

<glyph glyph-name="profile" unicode="&#xe80f;" d="M921 59l-2-4c-114-133-261-205-419-205-158 0-305 74-416 207l-3 2 0 5c21 140 96 251 205 316l7 5 7-7c54-56 123-86 200-86s147 30 200 86l7 7 7-5c112-65 184-176 205-316l2-5z m-421 291c137 0 249 112 249 249s-112 251-249 251-249-112-249-249 112-251 249-251z" horiz-adv-x="1000" />

<glyph glyph-name="quality" unicode="&#xe810;" d="M950 30l-206 206 83 30c8 3 12 10 10 18l-22 126 64 112c4 6 3 15-3 19l-99 83-22 127c-1 7-8 13-15 13h-129l-99 82c-5 5-14 5-20 0l-98-82h-129c-7 0-14-6-15-13l-22-127-99-83c-6-4-7-13-4-19l65-112-23-126c-1-8 3-15 10-18l80-29-207-207c-4-5-6-11-4-17 2-6 8-9 14-10l128-11 10-128c1-6 5-11 10-13 2-1 4-1 6-1 4 0 8 2 11 5l275 275 275-275c3-3 7-5 11-5 2 0 4 0 6 1 5 2 9 7 10 13l11 128 128 11c6 0 11 4 13 10 2 6 1 12-4 17z m-723-130l-9 108c-1 8-7 14-15 14l-107 9 194 194 8-3 65-111c3-5 8-8 13-8 2 0 4 0 6 1l76 28-231-232z m288 276l-7 3c-4 1-7 1-11 0l-11-4-103-37-60 105c-2 3-5 5-9 6l-23 9-91 33 21 119c1 4 0 8-1 11l-61 105 93 78c3 2 5 5 5 9l21 120h122c3 0 7 1 10 3l92 78 93-78c3-2 7-3 10-3h122l21-120c0-4 2-7 5-9l93-78-61-105c-2-3-2-7-2-11l21-119-94-34-19-8c-4-1-7-3-9-6l-60-105-107 38c0 0 0 0 0 0z m282-154c-8 0-14-6-14-14l-9-108-234 234 83-30c2-1 4-1 6-1 5 0 10 3 13 8l65 111 5 2 192-193-107-9z m-297 694c-137 0-248-111-248-248s111-249 248-249c137 0 248 112 248 249s-111 248-248 248z m0-465c-120 0-217 97-217 217s97 217 217 217c120 0 217-97 217-217s-97-217-217-217z m180 266c-3 7-9 11-15 11h-115l-36 110c-2 6-8 10-15 10-7 0-13-4-15-10l-35-110h-115c-7 0-13-4-15-11-2-6 0-13 6-17l93-68-36-109c-2-7 0-14 6-18 3-2 6-3 9-3s6 1 9 3l93 68 93-68c6-4 13-4 19 0 5 4 7 11 5 18l-35 109 93 68c5 4 8 11 6 17z m-127-66c-5-4-8-11-5-18l24-74-64 46c-5 4-12 4-18 0l-63-46 24 74c2 7 0 14-6 18l-63 46h78c7 0 13 4 15 11l24 74 24-74c3-7 9-11 15-11h79l-64-46z" horiz-adv-x="1000" />

<glyph glyph-name="quality-1" unicode="&#xe811;" d="M950 30l-206 206 83 30c8 3 12 10 10 18l-22 126 64 112c4 6 3 15-3 19l-99 83-22 127c-1 7-8 13-15 13h-129l-99 82c-5 5-14 5-20 0l-98-82h-129c-7 0-14-6-15-13l-22-127-99-83c-6-4-7-13-4-19l65-112-23-126c-1-8 3-15 10-18l80-29-207-207c-4-5-6-11-4-17 2-6 8-9 14-10l128-11 10-128c1-6 5-11 10-13 2-1 4-1 6-1 4 0 8 2 11 5l275 275 275-275c3-3 7-5 11-5 2 0 4 0 6 1 5 2 9 7 10 13l11 128 128 11c6 0 11 4 13 10 2 6 1 12-4 17z m-723-130l-9 108c-1 8-7 14-15 14l-107 9 194 194 8-3 65-111c3-5 8-8 13-8 2 0 4 0 6 1l76 28-231-232z m288 276l-7 3c-4 1-7 1-11 0l-11-4-103-37-60 105c-2 3-5 5-9 6l-23 9-91 33 21 119c1 4 0 8-1 11l-61 105 93 78c3 2 5 5 5 9l21 120h122c3 0 7 1 10 3l92 78 93-78c3-2 7-3 10-3h122l21-120c0-4 2-7 5-9l93-78-61-105c-2-3-2-7-2-11l21-119-94-34-19-8c-4-1-7-3-9-6l-60-105-107 38c0 0 0 0 0 0z m282-154c-8 0-14-6-14-14l-9-108-234 234 83-30c2-1 4-1 6-1 5 0 10 3 13 8l65 111 5 2 192-193-107-9z m-297 694c-137 0-248-111-248-248s111-249 248-249c137 0 248 112 248 249s-111 248-248 248z m0-465c-120 0-217 97-217 217s97 217 217 217c120 0 217-97 217-217s-97-217-217-217z m180 266c-3 7-9 11-15 11h-115l-36 110c-2 6-8 10-15 10-7 0-13-4-15-10l-35-110h-115c-7 0-13-4-15-11-2-6 0-13 6-17l93-68-36-109c-2-7 0-14 6-18 3-2 6-3 9-3s6 1 9 3l93 68 93-68c6-4 13-4 19 0 5 4 7 11 5 18l-35 109 93 68c5 4 8 11 6 17z m-127-66c-5-4-8-11-5-18l24-74-64 46c-5 4-12 4-18 0l-63-46 24 74c2 7 0 14-6 18l-63 46h78c7 0 13 4 15 11l24 74 24-74c3-7 9-11 15-11h79l-64-46z" horiz-adv-x="1000" />

<glyph glyph-name="time" unicode="&#xe812;" d="M950 750h-2c-7 38-40 67-81 67-41 0-74-29-82-67h-20c-7 38-41 67-82 67-41 0-74-29-81-67h-20c-8 38-41 67-82 67-41 0-74-29-82-67h-20c-7 38-40 67-81 67-41 0-74-29-82-67h-20c-7 38-41 67-82 67-41 0-74-29-81-67h-2c-28 0-50-22-50-50v-133-634c0-28 22-50 50-50h900c28 0 50 22 50 50v634 133c0 28-22 50-50 50z m-83 33c22 0 40-13 47-33h-95c7 20 25 33 48 33z m-184 0c23 0 41-13 48-33h-95c7 20 25 33 47 33z m-183 0c22 0 41-13 47-33h-94c6 20 25 33 47 33z m-183 0c22 0 40-13 47-33h-95c7 20 25 33 48 33z m-184 0c23 0 41-13 48-33h-95c7 20 25 33 47 33z m-100-83c0 10 7 17 17 17h131c-7-20-25-34-48-34-10 0-16-6-16-16s6-17 16-17c41 0 75 28 82 67h149c-7-20-25-34-47-34-10 0-17-6-17-16s7-17 17-17c41 0 74 28 81 67h149c-6-20-25-34-47-34-10 0-17-6-17-16s7-17 17-17c41 0 74 28 82 67h149c-7-20-25-34-48-34-10 0-16-6-16-16s6-17 16-17c41 0 75 28 82 67h149c-7-20-25-34-47-34-10 0-17-6-17-16s7-17 17-17c41 0 74 28 81 67h2c10 0 17-7 17-17v-117h-934v117z m934-767c0-10-7-16-17-16h-900c-10 0-17 6-17 16v617h934v-617z m-817 417h100c10 0 17 7 17 17v100c0 10-7 16-17 16h-100c-10 0-17-6-17-16v-100c0-10 7-17 17-17z m17 100h66v-67h-66v67z m183-100h100c10 0 17 7 17 17v100c0 10-7 16-17 16h-100c-10 0-17-6-17-16v-100c0-10 7-17 17-17z m17 100h66v-67h-66v67z m183-100h100c10 0 17 7 17 17v100c0 10-7 16-17 16h-100c-10 0-17-6-17-16v-100c0-10 7-17 17-17z m17 100h66v-67h-66v67z m183-100h100c10 0 17 7 17 17v100c0 10-7 16-17 16h-100c-10 0-17-6-17-16v-100c0-10 7-17 17-17z m17 100h66v-67h-66v67z m-617-283h100c10 0 17 6 17 16v100c0 10-7 17-17 17h-100c-10 0-17-7-17-17v-100c0-10 7-16 17-16z m17 100h66v-67h-66v67z m183-100h100c10 0 17 6 17 16v100c0 10-7 17-17 17h-100c-10 0-17-7-17-17v-100c0-10 7-16 17-16z m17 100h66v-67h-66v67z m-217-284h100c10 0 17 7 17 17v100c0 10-7 17-17 17h-100c-10 0-17-7-17-17v-100c0-10 7-17 17-17z m17 100h66v-66h-66v66z m183-100h100c10 0 17 7 17 17v100c0 10-7 17-17 17h-100c-10 0-17-7-17-17v-100c0-10 7-17 17-17z m17 100h66v-66h-66v66z m333-133c102 0 183 82 183 183 0 102-81 184-183 184s-183-82-183-184c0-101 81-183 183-183z m0 333c83 0 150-66 150-150 0-83-67-150-150-150s-150 67-150 150c0 84 67 150 150 150z m-28-245c3-3 6-5 11-5 7 0 12 4 14 9l100 150c5 8 3 18-5 23s-19 3-24-5l-88-133-52 51c-6 7-16 7-23 0-7-6-7-16 0-23l67-67z" horiz-adv-x="1000" />

<glyph glyph-name="zoom-in" unicode="&#xe813;" d="M989-91l-298 298c57 68 92 156 92 250 0 213-178 391-391 391s-392-178-392-391 178-392 392-392c92 0 178 34 245 89l295-295c8-7 15-7 29-7s21 0 28 7c15 14 15 35 0 50z m-597 228c-178 0-321 142-321 320s143 320 321 320 320-142 320-320-143-320-320-320z m106 355h-71v72c0 21-14 35-35 35-22 0-36-14-36-35v-72h-71c-22 0-36-14-36-35s14-36 36-36h71v-71c0-21 14-36 36-36 21 0 35 15 35 36v71h71c22 0 36 14 36 36 0 21-14 35-36 35z" horiz-adv-x="1000" />

<glyph glyph-name="2" unicode="&#xe814;" d="M791 441c-2 22 0 81 56 162 5 6 3 14-2 20-23 24-37 38-47 49-12 14-18 20-28 28-6 5-14 5-20 0-98-86-209-264-192-481 9-128 103-221 222-221 122 0 222 100 222 222-2 118-94 213-211 221z m-555 0c-2 22 0 81 56 162 5 6 3 14-1 20-24 24-38 38-47 49-13 14-19 20-28 28-7 5-14 5-21 0-100-87-209-264-193-483v0c9-128 103-220 221-220 122 0 222 100 222 222 0 119-92 214-209 222z" horiz-adv-x="1000" />

<glyph glyph-name="3" unicode="&#xe815;" d="M313-90c-6-7-14-10-22-10s-17 3-23 10c-12 12-12 32 0 45l396 395-396 395c-12 13-12 33 0 45s33 13 45 0l418-417c12-13 12-33 0-45l-418-418z" horiz-adv-x="1000" />

<glyph glyph-name="001-close-envelope" unicode="&#xe816;" d="M500 207l-124 108-353-303c12-12 30-19 49-19h856c19 0 36 7 49 19l-353 303-124-108z m477 481c-12 12-30 19-49 19h-856c-19 0-36-7-49-19l477-409 477 409z" horiz-adv-x="1000" />

<glyph glyph-name="call-answer" unicode="&#xe817;" d="M978 60l-155 154c-31 31-82 30-113-2l-78-78c-5 3-10 6-15 9-50 27-117 64-188 135-71 71-108 138-135 188-3 5-6 10-9 15l53 52 25 25c32 32 33 83 2 114l-154 155c-31 30-82 29-114-3l-43-43 1-2c-15-18-27-40-36-63-8-22-13-43-16-64-20-169 57-324 267-533 290-290 523-268 533-267 22 2 43 8 64 16 23 9 45 21 64 36l0-1 45 43c31 32 32 83 2 114z" horiz-adv-x="1000" />

<glyph glyph-name="places-on-maps1" unicode="&#xe818;" d="M828 601c-3 14-11 28-16 40-64 154-204 209-317 209-151 0-317-101-339-310v-43c0-2 0-18 1-26 13-99 91-205 150-305 63-106 128-211 193-316 40 68 80 138 119 204 11 20 23 40 34 58 7 13 21 25 27 37 63 115 164 232 164 346v47c0 13-15 56-16 59z m-330-214c-44 0-93 22-117 83-3 10-3 30-3 32v27c0 78 66 114 124 114 71 0 126-57 126-128 0-71-59-128-130-128z" horiz-adv-x="1000" />

<glyph glyph-name="telegram" unicode="&#xe819;" d="M229 361l482 186c22 8 42-6 35-40l0 0-82-386c-7-28-23-34-46-21l-125 92-60-58c-7-7-12-12-25-12l9 127 231 209c11 9-2 14-15 5l-286-180-124 38c-27 9-27 27 6 40l0 0z" horiz-adv-x="1000" />

<glyph glyph-name="time-1" unicode="&#xe81a;" d="M500 850c-276 0-500-224-500-500s224-500 500-500 500 224 500 500-224 500-500 500z m216-595h-212c0 0-1 0-2 0-1 0-1 0-2 0-19 0-35 15-35 35v353c0 19 16 34 35 34s35-15 35-34v-319h181c19 0 35-15 35-34 0-20-16-35-35-35z" horiz-adv-x="1000" />

<glyph glyph-name="viber" unicode="&#xe81b;" d="M600 850h-200c-193 0-350-157-350-350v-150c0-135 78-258 200-316v-167c0-15 18-23 29-12l145 145h176c193 0 350 157 350 350v150c0 193-157 350-350 350z m-300-816c-122 57-200 181-200 316v150c0 193 157 350 350 350h-50c-193 0-350-157-350-350v-150c0-135 78-258 200-316v-167c0-15 18-23 29-12l21 21v158z m452 195l-15 81c-1 7-7 12-13 13l-118 24c-6 1-11-1-15-5l-48-47c-81 36-125 81-165 165l48 47c4 4 5 10 4 16l-23 117c-2 7-7 12-14 13l-81 15c-2 1-4 1-6 0-22-5-41-15-57-31-27-27-37-66-30-114 12-79 52-190 124-263l1-1c72-72 183-111 262-123 10-2 20-3 29-3 35 0 64 11 85 33 16 15 27 35 31 56 1 2 1 5 1 7z m-85-64c-9 0-19 0-29 2-80 13-190 52-263 124l-1 1c-72 72-111 183-123 263-6 38-1 71 16 96-7-4-12-9-18-14-27-27-37-66-30-114 13-80 52-191 124-263l1-1c72-72 183-111 263-123 10-2 19-3 29-3 34 0 63 11 84 32 6 6 11 12 15 18-19-12-42-18-68-18z m-134 402c-9 0-16-8-16-17s7-17 16-17c37 0 67-29 67-66 0-9 8-17 17-17s16 8 16 17c0 55-44 100-100 100z m0 66c-6 0-12 0-18-1-9-1-16-9-15-18s9-16 19-15c4 1 10 1 14 1 74 0 134-60 134-133 0-5 0-10-1-15-1-9 6-17 15-18 9-1 17 5 18 14 1 6 1 13 1 19 0 92-75 166-167 166z m0 67c-5 0-11 0-18-1-9 0-16-8-15-18 1-9 9-16 18-15 5 0 10 1 15 1 111 0 200-90 200-200 0-16-1-31-5-46-2-9 3-18 12-20 9-3 18 3 21 12 4 18 6 36 6 54 0 128-105 233-234 233z" horiz-adv-x="1000" />

<glyph glyph-name="wtupp" unicode="&#xe81c;" d="M500 850h0l0 0c-276 0-500-224-500-500 0-109 35-211 95-293l-62-186 192 62c79-53 173-83 275-83 276 0 500 224 500 500s-224 500-500 500z m291-706c-12-34-60-62-98-71-26-5-60-9-175 38-147 61-242 210-249 220-7 10-60 79-60 151s37 107 52 122c12 12 32 18 51 18 6 0 11-1 17-1 14-1 22-2 31-25 13-29 42-100 45-108 4-7 7-17 2-27-4-10-8-14-16-23s-14-15-21-24c-7-8-15-16-6-31 8-15 38-62 81-101 56-50 101-66 117-72 12-5 26-4 35 5 11 12 25 32 39 52 10 14 23 16 36 11 14-5 85-40 100-47 14-8 24-11 28-17 3-7 3-36-9-70z" horiz-adv-x="1000" />

<glyph glyph-name="01-result" unicode="&#xe81d;" d="M506 344c0 0-15-73-45-77s0-97 0-97l33-46 49-28 60-15 48 20 39 36 33 36v65 45l-50 50-85 28-54-17h-28z m322 310c0 1 0 1 0 1 0 1 0 2 0 2 0 0 0 0 0 0 0 1-1 2-1 3 0 0 0 0 0 0 0 1-1 2-1 3 0 0 0 0 0 0 0 1-1 1-1 2-1 0-1 0-1 0 0 1-1 2-1 2l-177 177c-1 1-2 2-2 2 0 0-1 0-1 1-1 0-1 1-2 1 0 0 0 0 0 0-1 0-1 0-2 1 0 0-1 0-1 0-1 0-1 1-2 1 0 0 0 0 0 0-1 0-2 0-3 0 0 0 0 0 0 0-1 0-1 0-1 0h-442c-11 0-20-9-20-19v-837c0-10 9-19 20-19h294v-106c0-7 4-13 10-17 6-3 14-3 20 1l74 47 75-47c3-2 6-3 10-3 3 0 6 1 9 2 7 4 10 10 10 17v106h117c11 0 20 9 20 19v660c-1 0-1 0-1 0z m-176 129l110-110h-110v110z m-178-536c-1 3-4 9-4 12 2 2 7 5 10 7 7 5 15 10 21 17 6 8 8 17 10 25 1 4 2 10 4 12 0 0 2 0 5 0 2 0 4 0 7 0 3 0 6 0 9 0 7 0 13 0 18 2 9 3 16 9 22 14 4 3 10 8 12 8 2 0 8-5 11-8 7-5 14-11 23-14 5-2 10-2 18-2 3 0 6 0 9 0 2 0 5 0 7 0 3 0 4 0 5 0 1-2 3-8 4-12 2-8 4-17 10-25 5-7 13-12 20-17 3-2 9-5 10-7 0-3-2-9-4-12-3-8-6-17-6-27s3-19 6-27c2-3 4-10 4-12-1-2-7-5-10-7-7-5-15-10-20-18-6-7-9-16-10-25-1-3-3-9-4-11-1 0-2 0-5 0-2 0-5 0-7 0-3 0-6 0-9 0-8 0-13 0-18-2-9-3-16-9-23-14-3-3-9-7-11-8-3 1-8 5-12 8-6 5-13 11-22 14-5 2-11 2-18 2-3 0-6 0-9 0-3 0-5 0-7 0-3 0-5 0-5 0-1 2-3 8-4 11-2 9-5 18-10 25-6 8-14 13-21 18-3 2-8 5-10 7 0 2 3 9 4 12 3 8 6 17 6 27 0 10-3 19-6 27z m179-342l-55 34c-6 4-14 4-20 0l-55-34v176c2 0 4 0 6 0 2 0 5 0 7 0 4 0 5 0 5 0 3-1 7-5 11-8 9-7 20-16 36-16s27 9 36 16c3 3 8 7 10 8 1 0 2 0 6 0 2 0 4 0 7 0 2 0 4 0 6 0l0-176 0 0z m39 109v83c6 7 8 17 11 25 1 4 2 10 3 11 2 2 7 5 10 8 10 6 22 13 27 28 5 14 0 27-4 38-2 5-4 10-4 13s2 9 4 13c4 11 9 24 4 39-5 14-17 21-27 27-3 3-8 6-10 8-1 1-2 7-3 11-3 11-7 25-19 34-9 7-20 7-28 7-3 0-6 0-9 0-2 0-5 0-7 0-4 0-5 0-6 0-2 1-6 5-10 8-9 7-20 16-36 16-15 0-27-9-36-16-3-3-8-7-10-8-1 0-2 0-6 0-2 0-4 0-7 0-3 0-6 0-9 0-7 0-19 0-28-7-12-9-15-23-18-34-1-4-3-10-4-11-2-2-6-5-10-8-10-6-22-13-27-27-4-15 1-28 5-39 1-4 3-10 3-13s-2-8-3-13c-4-11-9-24-5-38 5-15 17-22 27-28 4-3 8-6 10-8 1-1 3-7 4-11 2-8 4-17 10-25v-83h-275v797h404v-157c0-11 8-20 19-20h157v-620h-97z m-407 620h252c10 0 19 9 19 20s-9 19-19 19h-252c-11 0-20-8-20-19s9-20 20-20z m430-59h-430c-11 0-20-9-20-20s9-19 20-19h430c11 0 20 8 20 19s-9 20-20 20z m-78-99h-352c-11 0-20-9-20-19 0-11 9-20 20-20h352c11 0 20 9 20 20 0 10-9 19-20 19z m78 0c-10 0-19-9-19-19 0-11 9-20 19-20 11 0 20 9 20 20 0 10-9 19-20 19z" horiz-adv-x="1000" />

<glyph glyph-name="02-min-documents" unicode="&#xe81e;" d="M957 635l-25 8c-6 1-12 3-19 3-28 0-52-19-61-44l-14-41v30 1c0 5-3 10-6 13l-248 240c-3 3-8 5-11 5h-486c-9 0-15-6-15-15v-47h-56c-10 0-16-6-16-15v-908c0-9 6-15 16-15h736c9 0 15 6 15 15v47h56c9 0 15 6 15 15v205l43 57 1 5 114 362c12 33-6 68-39 79z m-369 164l199-191h-199v191z m149-919h-706v878h41v-831c0-9 6-15 15-15h650l0-32 0 0z m73 62h-2-706v878h456v-228c0-9 6-15 15-15h236v-113l-71-225v-4l3-193c0-6 5-12 11-13 6-2 14 0 17 6l40 54 1-147 0 0z m-40 147l-3 126 76-24-73-102z m199 476l-109-347-88 29 109 345c6 17 24 28 41 22l24-8c18-4 29-24 23-41z m-764 12h218c9 0 15 6 15 15v155c0 9-6 15-15 15h-218c-9 0-15-6-15-15v-155c0-7 7-15 15-15z m15 155h188v-124h-188v124z m-45-297h460c9 0 15 6 15 15 0 9-6 15-15 15h-460c-9 0-15-6-15-15 0-9 6-15 15-15z m0-111h460c9 0 15 6 15 15s-6 15-15 15h-460c-9 0-15-6-15-15s6-15 15-15z m0-110h460c9 0 15 6 15 15s-6 15-15 15h-460c-9 0-15-6-15-15s6-15 15-15z m474-96c0 9-6 15-15 15h-459c-9 0-15-6-15-15s6-15 15-15h460c8 0 14 8 14 15z m50-95h-229c-9 0-15-6-15-15s6-16 15-16h227c9 0 15 6 15 16s-5 15-13 15z" horiz-adv-x="1000" />

<glyph glyph-name="03-offices" unicode="&#xe81f;" d="M717-83h-467c-9 0-17-8-17-17v-33c0-10 8-17 17-17 9 0 17 7 17 17v16h450c9 0 16 8 16 17s-7 17-16 17z m-350 516c0-9 7-16 16-16h67c9 0 16 7 16 16v100c0 10-7 17-16 17h-67c-9 0-16-7-16-17l0-100 0 0z m33 84h33v-67h-33v67z m-183 133h-200c-10 0-17-7-17-17v-333c0-9 7-17 17-17s16 8 16 17v317h184c9 0 16 7 16 16s-7 17-16 17z m583-617c0-9 7-16 17-16h66c9 0 17 7 17 16v100c0 10-8 17-17 17h-66c-10 0-17-7-17-17v-100z m33 84h34v-67h-34v67z m-750 133c-82 0-83-214-83-217 0-40 29-73 67-81v-85c0-9 7-17 16-17s17 8 17 17v85c38 8 66 41 66 81 1 3 0 217-83 217z m0-267c-27 0-50 23-50 50 0 83 23 184 50 184s50-101 50-184c0-27-22-50-50-50z m100 367h-66c-10 0-17-7-17-17v-33c0-9 7-17 17-17s16 8 16 17v17h34v-84c0-9 7-16 16-16s17 7 17 16v100c0 10-7 17-17 17z m634 67h66c9 0 17 7 17 16v100c0 9-8 17-17 17h-66c-10 0-17-8-17-17v-100c0-9 7-16 17-16z m16 100h34v-67h-34v67z m-650 33h-66c-10 0-17-7-17-17v-100c0-9 7-16 17-16h66c9 0 17 7 17 16v100c0 10-7 17-17 17z m-16-100h-34v67h34l0-67 0 0z m366-17c0-9 8-16 17-16h67c9 0 16 7 16 16v100c0 10-7 17-16 17h-67c-9 0-17-7-17-17l0-100 0 0z m34 84h33v-67h-33l0 67 0 0z m416 133h-200c-9 0-16-7-16-17s7-16 16-16h184v-670c-5 2-11 3-17 3-3 0-5 0-8-1-12 21-34 35-58 35s-47-14-58-35c-3 1-6 1-9 1-27 0-50-22-50-50s22-50 50-50h133c28 0 50 22 50 50v733c0 10-7 17-17 17z m-33-767h-133c-10 0-17 8-17 17s7 17 17 17c3 0 6-1 9-3 4-3 10-4 15-2 5 2 9 7 10 12 3 15 17 26 32 26s29-11 33-26c1-5 5-9 10-12 5-2 10-1 15 2 11 7 26-2 26-14 0-9-8-17-17-17z m-400 734h67c9 0 16 7 16 16v100c0 10-7 17-16 17h-67c-9 0-17-7-17-17v-100c0-9 8-16 17-16z m17 100h33v-67h-33l0 67 0 0z m-34-484c0-9 8-16 17-16h67c9 0 16 7 16 16v100c0 10-7 17-16 17h-67c-9 0-17-7-17-17l0-100 0 0z m34 84h33v-67h-33l0 67 0 0z m-184 300h67c9 0 17 7 17 16v100c0 10-8 17-17 17h-67c-9 0-16-7-16-17v-100c0-9 7-16 16-16z m17 100h33v-67h-33v67z m88-672c-3-3-5-7-5-12s2-8 5-12c3-3 8-5 12-5 4 0 9 2 12 5 3 3 5 8 5 12s-2 9-5 12c-6 6-17 6-24 0z m-121 188c0-9 7-16 16-16h67c9 0 16 7 16 16v100c0 10-7 17-16 17h-67c-9 0-16-7-16-17l0-100 0 0z m33 84h33v-67h-33v67z m-67-184c0-9 8-16 17-16h50v-150c0-9 7-17 17-17s16 8 16 17v150h134v-150c0-9 7-17 16-17s17 8 17 17v150h50c9 0 16 7 16 16s-7 17-16 17h-300c-9 0-17-7-17-17z m467 100c0-9 7-16 17-16h66c9 0 17 7 17 16v100c0 10-8 17-17 17h-66c-10 0-17-7-17-17v-100z m33 84h34v-67h-34v67z m-116 533h-434c-9 0-16-7-16-17v-866c0-9 7-17 16-17s17 8 17 17v850h400v-850c0-10 7-17 17-17s16 7 16 17v866c0 10-7 17-16 17z" horiz-adv-x="1000" />

<glyph glyph-name="04-problem-solved" unicode="&#xe820;" d="M188 423c0 0-28-99 0-99s112 7 112 7v93l-112-1z m0-162c0 0-28-100 0-100s112 7 112 7v93l-112 0z m0-168c0 0-28-100 0-100s112 7 112 7v93l-112 0z m145 524h17v-17c0-27 22-50 50-50 27 0 50 23 50 50v17h16c28 0 50 22 50 50 0 27-22 50-50 50h-16v16c0 28-23 50-50 50-28 0-50-22-50-50v-16h-17c-27 0-50-23-50-50 0-28 23-50 50-50z m0 66h34c9 0 16 8 16 17v33c0 10 8 17 17 17 9 0 16-7 16-17v-33c0-9 8-17 17-17h33c10 0 17-7 17-16 0-9-7-17-17-17h-33c-9 0-17-7-17-16v-34c0-9-7-17-16-17-9 0-17 8-17 17v33c0 10-7 17-16 17h-34c-9 0-16 7-16 17 0 9 7 16 16 16z m350 34h-107c-22 79-94 133-176 133s-154-54-176-133h-107c-46 0-84-38-84-84v-700c0-46 38-83 84-83h566c46 0 83 37 84 83v700c-1 46-38 84-84 84z m-283-234c82 1 154 55 176 134h90v-667h-533v667h91c22-79 94-134 176-134z m0 334c83 0 150-68 150-150 0-83-67-150-150-150-83 0-150 67-150 150 0 82 67 150 150 150z m333-884c0-27-22-50-50-50h-566c-28 0-50 23-50 50v700c0 28 22 50 50 50h100c0-5 0-10 0-16 0-6 0-11 0-17h-84c-18 0-33-15-33-33v-667c0-18 15-33 33-33h534c18 0 33 15 33 33v667c0 18-15 33-33 33h-85c1 6 1 11 1 17 0 5 0 11-1 16h101c28 0 50-22 50-50v-700z m-533 384c9 0 16 7 16 16 0 9-7 17-16 17v66h83c9 0 17 8 17 17 0 9-8 17-17 17h-83c-19 0-34-15-34-34v-66c1-18 15-33 34-33z m62 62c-7 6-17 6-24-1-6-6-6-16 0-23l34-33c6-7 17-7 23 0l84 83c6 6 6 17-1 23-6 7-16 7-23 1l-72-72-21 22z m338 21h16c10 0 17 7 17 17 0 9-7 16-17 16h-16c-9 0-17-7-17-16 0-10 8-17 17-17z m-150 0h83c9 0 17 7 17 17 0 9-8 16-17 16h-83c-9 0-17-7-17-16 0-10 8-17 17-17z m0-67h133c9 0 17 8 17 17 0 9-8 17-17 17h-133c-9 0-17-8-17-17 0-9 8-17 17-17z m-250-183c9 0 16 7 16 17 0 9-7 16-16 16v67h83c9 0 17 7 17 16 0 10-8 17-17 17h-83c-19 0-34-15-34-33v-67c1-18 15-33 34-33z m155 112l-72-72-21 22c-7 6-17 6-24 0-6-7-6-17 0-24l34-33c6-7 17-7 23 0l84 83c6 7 6 17-1 24s-17 6-23 0z m262 5h-17c-9 0-17-8-17-17 0-9 8-17 17-17h17c9 0 16 8 16 17 0 9-7 17-16 17z m-167-34h83c9 0 17 8 17 17 0 9-8 17-17 17h-83c-9 0-17-8-17-17 0-9 8-17 17-17z m0-66h133c9 0 17 7 17 16 0 9-8 17-17 17h-133c-9 0-17-8-17-17 0-9 8-16 17-16z m-250-184c9 0 16 8 16 17 0 9-7 17-16 17v66h83c9 0 17 8 17 17 0 9-8 16-17 16h-83c-19 0-34-14-34-33v-67c1-18 15-33 34-33z m155 112l-72-71-21 21c-7 6-17 6-24 0-6-6-6-17 0-23l34-34c6-6 17-6 23 0l84 84c6 6 6 17-1 23-6 6-17 6-23 0z m262 5h-17c-9 0-17-7-17-17 0-9 8-16 17-16h17c9 0 16 7 16 16 0 10-7 17-16 17z m-167-33h83c9 0 17 7 17 16 0 9-8 17-17 17h-83c-9 0-17-8-17-17 0-9 8-16 17-16z m0-67h133c9 0 17 7 17 17 0 9-8 16-17 16h-133c-9 0-17-7-17-16 0-10 8-17 17-17z m473 633h-80c-26-2-45-24-43-50v-550c0-2 0-3 1-5l54-156c3-13 15-22 28-22 13 0 25 9 28 21l54 157c1 2 1 3 1 5v550c2 26-17 48-43 50z m-9-654c-20 6-41 6-61 0l-13 38h87l-13-38z m-81 454v50h100v-50h-100z m67-383v217c0 9-8 16-17 16-9 0-16-7-16-16v-217h-34v350h34v-67c0-9 7-16 16-16 9 0 17 7 17 16v67h33v-350h-33z m-57 550h80c5 0 10-7 10-17v-66h-100v66c0 10 6 17 10 17z m40-708l-19 56c13 3 26 3 39 0l-20-56z" horiz-adv-x="1000" />

<glyph glyph-name="05-folder" unicode="&#xe821;" d="M995 459c-3 5-10 7-17 7h-43v239c0 17-13 30-30 30h-511l-42 68c-5 9-15 14-25 14h-230c-17 0-30-12-30-29v-322h-45c-7 0-12-3-17-7-3-5-5-10-5-16l82-543c2-10 12-18 22-18h793c10 0 20 8 21 18l82 543c2 5-2 11-5 16z m-895 324h224l42-68c5-9 15-15 25-15h511v-234h-17v67h-17v50h-17v50h-701v-50h-16v-50h-17v-67h-17v317z m50-284h701v-33h-701v33z m17 51h668v-17h-668v17z m651 33h-634v17h634v-17z m69-668h-773l-79 518h32 50 768 50 30l-78-518z m-436 84h350v233h-350l0-233z m33 200h284v-167h-284l0 167z m50-67h67c10 0 17 7 17 17s-7 17-17 17h-67c-10 0-16-7-16-17s6-17 16-17z m134 0h17c10 0 16 7 16 17s-6 17-16 17h-17c-10 0-17-7-17-17s7-17 17-17z m50-33h-184c-10 0-16-7-16-17s6-17 16-17h184c10 0 17 7 17 17s-9 17-17 17z" horiz-adv-x="1000" />

<glyph glyph-name="06-time" unicode="&#xe822;" d="M950 750h-2c-7 38-40 67-81 67-41 0-74-29-82-67h-20c-7 38-41 67-82 67-41 0-74-29-81-67h-20c-8 38-41 67-82 67-41 0-74-29-82-67h-20c-7 38-40 67-81 67-41 0-74-29-82-67h-20c-7 38-41 67-82 67-41 0-74-29-81-67h-2c-28 0-50-22-50-50v-133-634c0-28 22-50 50-50h900c28 0 50 22 50 50v634 133c0 28-22 50-50 50z m-83 33c22 0 40-13 47-33h-95c7 20 25 33 48 33z m-184 0c23 0 41-13 48-33h-95c7 20 25 33 47 33z m-183 0c22 0 41-13 47-33h-94c6 20 25 33 47 33z m-183 0c22 0 40-13 47-33h-95c7 20 25 33 48 33z m-184 0c23 0 41-13 48-33h-95c7 20 25 33 47 33z m-100-83c0 10 7 17 17 17h131c-7-20-25-34-48-34-10 0-16-6-16-16s6-17 16-17c41 0 75 28 82 67h149c-7-20-25-34-47-34-10 0-17-6-17-16s7-17 17-17c41 0 74 28 81 67h149c-6-20-25-34-47-34-10 0-17-6-17-16s7-17 17-17c41 0 74 28 82 67h149c-7-20-25-34-48-34-10 0-16-6-16-16s6-17 16-17c41 0 75 28 82 67h149c-7-20-25-34-47-34-10 0-17-6-17-16s7-17 17-17c41 0 74 28 81 67h2c10 0 17-7 17-17v-117h-934v117z m934-767c0-10-7-16-17-16h-900c-10 0-17 6-17 16v617h934v-617z m-817 417h100c10 0 17 7 17 17v100c0 10-7 16-17 16h-100c-10 0-17-6-17-16v-100c0-10 7-17 17-17z m17 100h66v-67h-66v67z m183-100h100c10 0 17 7 17 17v100c0 10-7 16-17 16h-100c-10 0-17-6-17-16v-100c0-10 7-17 17-17z m17 100h66v-67h-66v67z m183-100h100c10 0 17 7 17 17v100c0 10-7 16-17 16h-100c-10 0-17-6-17-16v-100c0-10 7-17 17-17z m17 100h66v-67h-66v67z m183-100h100c10 0 17 7 17 17v100c0 10-7 16-17 16h-100c-10 0-17-6-17-16v-100c0-10 7-17 17-17z m17 100h66v-67h-66v67z m-617-283h100c10 0 17 6 17 16v100c0 10-7 17-17 17h-100c-10 0-17-7-17-17v-100c0-10 7-16 17-16z m17 100h66v-67h-66v67z m183-100h100c10 0 17 6 17 16v100c0 10-7 17-17 17h-100c-10 0-17-7-17-17v-100c0-10 7-16 17-16z m17 100h66v-67h-66v67z m-217-284h100c10 0 17 7 17 17v100c0 10-7 17-17 17h-100c-10 0-17-7-17-17v-100c0-10 7-17 17-17z m17 100h66v-66h-66v66z m183-100h100c10 0 17 7 17 17v100c0 10-7 17-17 17h-100c-10 0-17-7-17-17v-100c0-10 7-17 17-17z m17 100h66v-66h-66v66z m333-133c102 0 183 82 183 183 0 102-81 184-183 184s-183-82-183-184c0-101 81-183 183-183z m0 333c83 0 150-66 150-150 0-83-67-150-150-150s-150 67-150 150c0 84 67 150 150 150z m-28-245c3-3 6-5 11-5 7 0 12 4 14 9l100 150c5 8 3 18-5 23s-19 3-24-5l-88-133-52 51c-6 7-16 7-23 0-7-6-7-16 0-23l67-67z" horiz-adv-x="1000" />

<glyph glyph-name="07-payment-" unicode="&#xe823;" d="M109 544c0 0-177-320 216-395 0 0 372 71 191 395 0 0-193 230-407 0z m779 306h-584c-33 0-61-27-61-61v-135c-110-32-192-134-192-255s82-223 192-255v-233c0-34 28-61 61-61h477c6 0 12 2 15 6l146 146c5 4 7 10 7 15v772c0 34-27 61-61 61z m-584-43h584c10 0 18-8 18-18v-64h-620v64c0 10 8 18 18 18z m-210-408c0 123 100 222 222 222s223-99 223-222-100-222-223-222-222 99-222 222z m192-488v225c10-2 20-2 30-2 80 0 151 35 200 91h131c12 0 21 10 21 21s-9 22-21 22h-101c19 32 31 69 34 108h67c12 0 21 10 21 21s-9 22-21 22h-67c-2 39-14 75-32 108h99c12 0 21 9 21 21s-9 22-21 22h-128c-49 57-122 94-203 94-10 0-20-1-30-2v20h620v-643h-85c-34 0-61-27-61-61v-85h-456c-10 0-18 8-18 18z m517 12v55c0 10 8 18 18 18h55l-73-73z m-72 604h71c11 0 21 9 21 21s-10 22-21 22h-71c-12 0-22-10-22-22s10-21 22-21z m0-151h71c11 0 21 10 21 21s-10 22-21 22h-71c-12 0-22-10-22-22s10-21 22-21z m0-151h71c11 0 21 9 21 21s-10 22-21 22h-71c-12 0-22-10-22-22s10-21 22-21z m71-151c11 0 21 10 21 21s-10 22-21 22h-200c-12 0-22-10-22-22s10-21 22-21h200z m-320 433l-26 26c-7 7-16 11-26 11s-20-4-26-11l-137-137-38 38c-7 7-16 11-26 11s-20-4-26-11l-26-26c-15-15-15-38 0-53l90-90c7-7 16-11 26-11h0c10 0 19 4 26 11l189 189c14 15 14 38 0 53z m-215-208l-82 82 18 19 49-49c8-9 22-9 30 0l148 147 18-18-181-181z" horiz-adv-x="1000" />

<glyph glyph-name="08-credit-card" unicode="&#xe824;" d="M523 468l-7 7 344 90 53-174 38-137-107-43-15 233c0 0-29 19-88 11-58-8-225 1-225 1l7 12z m-475-462c0 0-6-105 78-105s593 0 593 0-20 111-16 118c4 8-655 0-655 0l0-13z m843 813h-688c-43 0-78-35-78-78v-703h-78c-9 0-16-7-16-16v-63c0-43 35-78 78-78h657c43 0 78 35 78 78v242l83 21c25 6 40 31 34 56l-68 273c-3 12-11 23-22 29-8 5-17 7-27 7v76h109c9 0 16 7 16 15v63c0 43-35 78-78 78z m-782-907c-26 0-46 21-46 47v47h625v-47c0-17 5-33 15-47h-594z m657 0c-26 0-47 21-47 47 0 0 0 0 0 0v63c0 9-7 16-16 16h-547v703c0 26 21 47 47 47h626c-11-14-16-30-16-47v-161l-420-105h-65c-26 0-47-21-47-47v-281c0-26 21-47 47-47h469c5 0 10 1 16 3v-144c0-26-21-47-47-47z m68 544l47 12 15-61-52-13v34c0 10-4 20-10 28l0 0z m-37-12c9 0 16-7 16-16v-281c0-9-7-16-16-16h-469c-8 0-15 7-15 16v281c0 9 7 16 15 16l469 0z m122-192l-75-19v129l60 15 27-106c1-8-4-17-12-19 0 0 0 0 0 0l0 0z m-64 301c4-2 6-5 7-9l12-46-93-23h-258l320 80c4 1 9 1 12-2l0 0z m83 141h-94v47c0 26 21 47 47 47s47-21 47-47v-47z m-266-375c11 0 23 4 31 12 19-17 49-16 66 3 18 19 16 49-3 66-18 16-45 16-63 0-19 18-49 16-66-3s-16-49 3-66c9-8 20-12 32-12z m62 62c9 0 16-7 16-15s-7-16-16-16-15 7-15 16 7 15 15 15z m-62 0c9 0 16-7 16-15s-7-16-16-16-16 7-16 16 7 15 16 15z m-313-62h94c9 0 16 7 16 15v63c0 9-7 16-16 16h-94c-8 0-15-7-15-16v-63c0-8 7-15 15-15z m16 62h63v-31h-63v31z m-31-187h125v-31h-125v31z m156 0h63v-31h-63v31z m94 0h94v-31h-94v31z m-250 62h31v-31h-31v31z m62 0h32v-31h-32v31z m63 0h31v-31h-31v31z m62 0h32v-31h-32v31z m63 0h31v-31h-31v31z m62 0h32v-31h-32v31z m-359 282v15c26 0 47 21 47 47s-21 47-47 47h-31c-9 0-16 7-16 16s7 15 16 15h31c9 0 16-7 16-15h31c0 26-21 46-47 46v16h-31v-16c-26 0-47-20-47-46s21-47 47-47h31c9 0 16-7 16-16 0-9-7-16-16-16h-31c-9 0-16 7-16 16h-31c0-26 21-47 47-47v-15h31z m78 62h188v-31h-188v31z m0 63h63v-32h-63v32z m94 0h94v-32h-94v32z m-281-219h62v-31h-62v31z m0-63h62v-31h-62v31z m0-62h62v-31h-62v31z m0-63h62v-31h-62v31z" horiz-adv-x="1000" />

<glyph glyph-name="09-confidentional" unicode="&#xe825;" d="M375 709h438v-31h-438v31z m0-62h438v-31h-438v31z m0-63h438v-31h-438v31z m0-62h438v-31h-438v31z m547-188h-47v422c0 9-7 16-16 16h-46v47c0 8-7 15-16 15h-656c-9 0-16-7-16-15v-485h-47c-34 0-62-28-62-62v-406h31v406c0 17 14 31 31 31h844c17 0 31-14 31-31v-406h31v406c0 34-28 62-62 62z m-78 0h-625v282h109c9 0 16 7 16 15v110h500v-407z m-603 313l72 72v-72h-72z m-85 156h625v-31h-453c-4 0-8-2-11-5l-125-125c-3-2-5-6-5-11v-297h-31l0 469z m625-406h32v-31h-32v31z m-62 0h31v-31h-31v31z m-63 0h32v-31h-32v31z m-62 0h31v-31h-31v31z m0 62h219v-31h-219v31z m-516-218h438v-32h-438v32z m0-63h219v-31h-219v31z m625 94c-112 0-203-91-203-203s91-203 203-203 203 91 203 203-91 203-203 203z m0-375c-95 0-172 77-172 172s77 172 172 172 172-77 172-172-77-172-172-172z m94 187h-16v47c0 43-35 78-78 78s-78-35-78-78v-47h-16c-8 0-15-7-15-15v-94c0-9 7-16 15-16h188c9 0 16 7 16 16v94c0 8-7 15-16 15z m-141 47c0 26 21 47 47 47s47-21 47-47v-47h-94v47z m125-140h-156v62h156v-62z" horiz-adv-x="1000" />

<glyph glyph-name="001-latvia" unicode="&#xe826;" d="M925 678h-850c-41 0-75-34-75-75v-193h1000v193c0 41-33 75-75 75z m-925-581c0-41 34-75 75-75h850c42 0 75 34 75 75v193h-1000v-193z" horiz-adv-x="1000" />

<glyph glyph-name="002-poland" unicode="&#xe827;" d="M23 796h204v-142h-204z m0-71h204v-71h-204z" horiz-adv-x="1000" />

<glyph glyph-name="003-spain" unicode="&#xe828;" d="M17 22h966c9 0 17 8 17 18v620c0 10-8 18-17 18h-966c-9 0-17-8-17-18v-620c0-10 8-18 17-18z m405 328l15 66c1 6-3 12-9 12h-11c-6 0-10-6-9-12l14-66z m-258 0l14 66c2 6-3 12-9 12h-10c-7 0-11-6-10-12l15-66z m60 52c-9 0-17-8-17-17v-113c0-20 19-60 86-60s86 40 86 60v113c0 9-7 17-17 17h-138z m69-86h-86v69c0 9 8 17 17 17h69v-86z m0 0h86v-44c0-23-19-43-43-43l0 0c-24 0-43 20-43 43v44z m-86 0h86v-44c0-23-19-43-43-43l0 0c-24 0-43 20-43 43v44z m69-78v78h-17v-86c6 2 12 4 17 8z m-35-8v86h-17v-78c5-4 11-6 17-8z m35 215c-14 0-26 11-26 26 0 14 12 26 26 26 14 0 26-12 26-26 0-15-12-26-26-26z m0 34c-5 0-9-4-9-8 0-5 4-9 9-9s9 4 9 9c0 4-4 8-9 8z m34-34c-14 0-25 11-25 26 0 14 11 26 25 26 15 0 26-12 26-26s-11-26-26-26z m0 34c-4 0-8-4-8-8 0-5 4-9 8-9 5 0 9 4 9 9 0 4-4 8-9 8z m35-51c-14 0-26 11-26 25 0 15 12 26 26 26 14 0 26-11 26-26s-12-25-26-25z m0 34c-5 0-9-4-9-9 0-4 4-8 9-8 5 0 8 4 8 8s-3 9-8 9z m-104-34c-14 0-25 11-25 25 0 15 11 26 25 26 15 0 26-11 26-26 0-14-11-25-26-25z m0 34c-4 0-8-4-8-9 0-4 4-8 8-8s9 4 9 8c0 5-4 9-9 9z m104-181v-9c0-4-4-8-9-8s-8 4-8 8v9h17m17 17h-52v-26c0-14 12-25 26-25 15 0 26 11 26 25v26h0z m-26 35l0 0c-9 0-17 8-17 17v17c0 10 8 18 17 18l0 0c10 0 17-8 17-18v-17c0-9-7-17-17-17z m-95 86l-17 17 10 10c16 16 37 25 59 25l0 0c22 0 43-9 59-25l10-10-17-17h-104z" horiz-adv-x="1000" />

<glyph glyph-name="004-estonia" unicode="&#xe829;" d="" horiz-adv-x="1000" />

<glyph glyph-name="005-slovakia" unicode="&#xe82a;" d="M23 796h204v-142h-204z m0 0h204v-47h-204z m0-95h204v-47h-204z m92 0l-17-15-17 15a43 43 0 0 0-14 37l3 26h57l2-26a43 43 0 0 0-14-37z m-2 39h-12v4h6a3 3 0 1 1 0 7h-6v3a3 3 0 0 1-6 0v-3h-6a3 3 0 1 1 0-7h6v-4h-12a3 3 0 1 1 0-7h12v-11a3 3 0 0 1 6 0v11h12a3 3 0 1 1 0 7z m9-30a12 12 0 0 1-12 1 12 12 0 0 1-24 0 12 12 0 0 1-12-1 43 43 0 0 1 7-9l17-15 17 15a43 43 0 0 1 7 9z m-24-27a3 3 0 0 0-2 1l-17 14a47 47 0 0 0-16 41l3 25a3 3 0 0 0 4 3h57a3 3 0 0 0 3-3l3-25a47 47 0 0 0-16-41l-17-14a3 3 0 0 0-2-1z m-25 77l-3-22a40 40 0 0 1 14-35l14-12 14 12a40 40 0 0 1 14 35l-3 22z" horiz-adv-x="1000" />

<glyph glyph-name="006-czech-republic" unicode="&#xe82b;" d="M6 27l494 323-494 323c-3-3-6-7-6-13v-620c0-6 3-10 6-13z m0 0c3-3 7-5 11-5h966c9 0 17 8 17 18v310h-500l-494-323z m0 646c3 3 7 5 11 5h966c9 0 17-8 17-18v-310h-500l-494 323z" horiz-adv-x="1000" />

<glyph glyph-name="bitcoin-logo" unicode="&#xe82c;" d="M833 325c-23 30-58 51-105 62 59 31 86 82 78 155-2 27-9 50-22 69-12 20-28 35-49 47-21 12-44 21-68 27-24 6-52 11-84 14v151h-93v-147c-16 0-40-1-73-1v148h-93v-151c-13-1-32-1-58-1l-127 1v-99h66c31 0 49-14 54-41v-172c4 0 7-1 10-1h-10v-241c-3-21-15-31-35-31h-67l-18-110h120c8 0 19 0 33 0 14-1 25-1 32-1v-153h93v151c17 0 41 0 73 0v-151h93v153c33 2 62 5 87 9 26 5 50 12 73 21 24 9 43 21 59 35 15 14 28 32 38 54 11 21 17 46 20 75 5 55-4 98-27 128z m-414 268c3 0 11 1 24 1 13 0 23 0 32 0 9 1 20 0 35-1 14-1 27-3 37-5s21-5 33-10c12-4 22-10 29-17 7-6 13-15 18-25 5-10 8-22 8-35 0-11-2-22-6-31-3-9-9-17-16-23-7-6-15-12-22-16-8-5-18-8-29-11-12-3-23-5-31-7-9-1-20-3-33-3-14-1-24-1-31-1-6-1-16-1-27 0-12 0-19 0-21 0v184h0z m253-409c-4-9-9-17-15-24-6-7-14-13-24-18-10-5-19-9-28-12-10-4-21-7-34-9-13-2-24-4-34-5-10-1-22-2-35-2-14-1-25-1-32-1-8 0-17 0-29 0-12 0-19 0-22 0v203c3 0 13 1 28 1 16 0 29 1 39 1 10 0 24-1 42-2 17-1 32-3 44-6 12-2 25-6 39-11 15-5 26-11 35-18 9-7 16-16 22-28 6-11 9-24 9-38 0-11-2-22-5-31z" horiz-adv-x="1000" />

<glyph glyph-name="mastercard" unicode="&#xe82d;" d="M267 393c-19 0-34-6-34-6l-4-24c0 0 12 5 30 5 10 0 18-1 18-9 0-5-1-7-1-7s-8 1-12 1c-23 0-48-10-48-41 0-24 16-29 26-29 19 0 28 12 28 12l-1-10h24l11 75c0 32-28 33-37 33z m-14-87c-8 0-11 6-11 10 0 7 4 16 24 16 5 0 6 0 6 0 1-5-2-26-19-26z m85 53c0-14 33-7 33-41 0-36-35-35-41-35-23 0-30 3-31 4l4 24c0 0 11-5 24-5 7 0 17 1 17 10 0 13-34 10-34 41 0 28 20 36 40 36 16 0 26-2 26-2l-4-24c0 0-15 1-19 1-9 0-15-2-15-9z m65-42c0-3 1-9 10-9 3 0 5 1 7 1l-3-23c-3-1-11-3-21-4-12 0-21 8-21 24 0 10 15 100 16 100h27l-3-16h14l-4-25h-14l-8-48z m106 12c0 0 3 17 3 25 0 18-9 39-39 39-27 0-48-29-48-63 0-38 26-47 48-47 20 0 29 4 29 4l4 26c0 0-15-6-29-6-29 0-24 22-24 22h56z m-36 40c16 0 13-17 13-19h-30c0 2 3 19 17 19z m-247 46l-22-130h-28l16 98-36-98h-18l-3 98-16-98h-27l22 130h40l1-80 27 80h44z m345 17h-142c2 3 7 13 14 27h117c4-8 8-18 11-27z m-26 54h-87c6 10 12 19 19 28h48c8-9 14-18 20-28z m-45-326c-10 8-18 18-26 28h53c-8-10-17-19-26-28h0c0 0 0 0 0 0-1 0-1 0-1 0z m46 54h-91c-6 9-11 18-16 28h122c-5-10-10-19-15-28z m32 177c-3-7-7-14-10-31-19 6-20-30-28-76h-28l17 106h25l-2-15c0 0 9 17 21 17 3 0 5-1 5-1z m51-82c9 0 22 7 22 7l-5-30c0 0-14-4-23-4-33 0-50 23-50 57 0 51 31 79 63 79 14 0 30-7 30-7l-4-29c0 0-11 8-25 8-19 0-35-18-35-50 0-16 7-31 27-31z m266-9c-1-1-2-2-3-3 0-2-1-3-1-4s1-3 1-5c1-1 2-2 3-3 2 0 3-1 5-1 1 0 2 1 4 1 1 1 2 2 3 3 1 2 1 3 1 5 0 1-1 2-1 4-1 1-2 2-3 3-2 0-3 1-4 1-2 0-3-1-5-1z m11-4c0-1 1-2 1-3s-1-3-1-4c-1-1-2-2-3-2-1-1-2-1-3-1-2 0-3 0-4 1-1 0-2 1-2 2s-1 2-1 4 0 2 1 3c0 1 1 2 2 3s2 0 4 0 2 0 3 0c1-1 2-2 3-3z m-111 31c0-22 11-44 33-44 17 0 26 12 26 12l-1-10h26l21 130-27 0-6-37c0 0-10 14-26 14-26 0-46-30-46-65z m65 16c0-14-7-33-22-33-10 0-14 8-14 21 0 21 9 35 21 35 10 0 15-7 15-23z m45-136c-1 0-1 0-1 0 1 0 1 0 2 1 0 0 0 1 0 1 0 1 0 1 0 2s-1 1-1 1c-1 0-1 0-2 0h-4v-9l0 0h2v4h1c0 0 1 0 1-1 0 0 1-1 1-2l1-1h2l-1 2c-1 1-1 1-1 2z m-2 1h-2v3h2c0 0 1 0 1 0 0-1 0-1 1-1 0 0 0 0 0-1 0 0 0 0-1-1s-1 0-1 0z m71 466h-948c-14 0-26-11-26-26v-596c0-14 12-26 26-26h948c15 0 26 12 26 26v596c0 15-11 26-26 26z m-64-471c0-1-1-2-3-3s-2-1-4-1c-1 0-3 1-4 1-1 1-2 2-3 3-1 2-1 3-1 5s0 2 1 4c1 1 2 2 3 3 1 0 3 1 4 1 1 0 3-1 4-1 1-1 3-2 3-3 1-2 1-3 1-4s0-3-1-5z m19 147c0-142-115-257-257-257-66 0-126 25-172 67-46-42-106-67-172-67-142 0-257 115-257 257 0 141 114 256 255 257 1 0 1 0 2 0 66 0 126-25 172-67 46 42 106 67 172 67 142 0 257-115 257-257 0 0 0 0 0 0z m-33-53v-9h1v4h1c1 0 1 0 1-1 1 0 1-1 2-2l1-1h1l-1 2c0 1-1 1-1 1 0 1 0 1-1 1 1 0 2 0 2 1 1 0 1 1 1 1 0 1 0 1-1 2 0 0 0 0-1 1s-1 0-2 0l-3 0 0 0z m5-2c0 0 0 0 0-1 0 0 0 0 0-1 0 0-1 0-2 0h-2v3h2c1 0 1 0 2 0 0-1 0-1 0-1z m-192 98c-18 0-33-6-33-6l-4-24c0 0 12 5 30 5 10 0 18-1 18-9 0-5-1-7-1-7s-8 1-12 1c-24 0-48-10-48-41 0-24 16-29 26-29 19 0 28 12 28 12l-1-10h24l11 75c0 32-28 33-38 33z m-13-87c-8 0-11 6-11 10 0 7 4 16 24 16 5 0 6 0 6 0 1-5-3-26-19-26z m101 54c-19 6-20-30-28-76h-28l17 106h25l-2-15c0 0 9 17 21 17 4 0 6-1 6-1-4-7-7-14-11-31z" horiz-adv-x="1000" />

<glyph glyph-name="visa-pay-logo1" unicode="&#xe82e;" d="M974 674h-948c-14 0-26-11-26-26v-596c0-14 12-26 26-26h948c15 0 26 12 26 26v596c0 15-11 26-26 26z m-897-196h107c15 0 26-5 30-20l23-112c-22 58-77 107-160 127l0 5z m130-254l-62 210c44-28 82-73 95-104l8-26 67 172h73l-109-252-72 0z m234-1h-68l43 253h69l-44-253z m120-3c-31 0-60 6-76 13l9 57 9-4c23-10 37-14 65-14 20 0 41 8 41 25 0 11-9 19-36 31-26 12-60 33-60 69 1 49 48 83 117 83 26 0 48-5 61-10l-9-55-6 3c-13 5-29 10-52 10-27 0-39-12-39-22 0-12 14-20 38-31 40-18 58-40 58-69 0-52-47-86-120-86z m299 3c0 0-7 29-9 38-10 0-80 0-88 0-3-7-14-38-14-38h-73l103 232c7 16 19 21 36 21h53l56-253-64 0 0 0z m-41 185c-3-10-9-25-9-24 0 0-21-57-27-71h57c-3 13-16 73-16 73l-5 22z" horiz-adv-x="1000" />

<glyph glyph-name="mail" unicode="&#xe82f;" d="M0-29l324 342 176-100 176 100 324-342-1000 0z m0 114l0 414 254-147z m0 503l0 141 1000 0 0-141-500-285z m746-236l254 147 0-414z" horiz-adv-x="1000" />

<glyph glyph-name="play-1" unicode="&#xe830;" d="M486 376q14-10 14-26 0-14-14-24l-428-266q-24-16-41-6t-17 40l0 514q0 30 17 40t41-6z" horiz-adv-x="500" />

<glyph glyph-name="padlock" unicode="&#xe831;" d="M889 376c-13 13-29 20-48 20h-23v136c0 87-31 162-94 224-62 63-137 94-224 94-87 0-162-31-224-94-63-62-94-137-94-224v-136h-23c-19 0-35-7-48-20-13-14-20-30-20-49v-409c0-19 7-35 20-48 13-13 29-20 48-20h682c19 0 35 7 48 20 13 13 20 29 20 48v409c0 19-7 35-20 49z m-207 20h-364v136c0 50 18 93 54 128 35 36 78 54 128 54 50 0 93-18 129-54 35-35 53-78 53-128v-136z" horiz-adv-x="1000" />

<glyph glyph-name="eye" unicode="&#xe832;" d="M863 486c-201 201-528 201-729 0l-134-134 138-138c100-100 232-150 364-150s264 50 364 150l134 134-137 138z m-21-248c-188-187-493-187-681 0l-113 114 110 110c188 188 493 188 681 0l113-114-110-110z m-359 248c-66 0-119-53-119-119 0-9 8-16 17-16s17 7 17 16c0 47 38 85 85 85 9 0 17 7 17 17s-8 17-17 17z m17 84c-122 0-220-98-220-219s98-220 220-220 219 98 219 220-98 219-219 219z m0-405c-103 0-186 83-186 186s83 185 186 185 185-83 185-185-83-186-185-186z" horiz-adv-x="1000" />

<glyph glyph-name="ok" unicode="&#xe833;" d="M933 534q0-22-16-38l-404-404-76-76q-16-15-38-15t-38 15l-76 76-202 202q-15 16-15 38t15 38l76 76q16 16 38 16t38-16l164-165 366 367q16 16 38 16t38-16l76-76q16-15 16-38z" horiz-adv-x="1000" />

<glyph glyph-name="04" unicode="&#xe87d;" d="M8 34c108 24 216 45 321 69 16 4 38-18 22-27-37-22-76-44-114-65 220 6 428 98 577 259 76 80 141 170 194 266 53 92 94 189 86 306 0 12 18 8 20-4 14-110-18-204-63-292-57-112-129-216-216-308-162-170-390-265-625-259 53-31 102-68 149-107 6-4 8-12 2-18-4-6-12-8-18-4l-329 157c-14 6-20 25-6 27z m159-45c-8 6-10 16-2 22l72 41c-59-12-115-25-174-37l172-81c-19 14-39 26-60 38-8 1-10 9-8 17z" horiz-adv-x="1118" />
</font>
</defs>
</svg>
